#!OML:ASF C:\ViconDB\ViconDB\414\Spring2016\041811\Spring2016.ASF
:FULLY-SPECIFIED
:DEGREES
400
root 9.86501 12.6967 -13.499 52.5591 6.22172 315.197
lowerback 32.6782 -3.81626 -7.70165
upperback 13.2203 -7.60112 -10.0691
thorax -2.68056 -3.68075 -4.11345
lowerneck -18.8556 1.41837 -5.33777
upperneck 27.4904 -5.68452 30.6819
head 14.038 -0.155638 13.111
rclavicle 1.30403e-013 -5.08889e-014
rhumerus -64.6811 -29.0701 10.8039
rradius 23.9143
rwrist 35.0539
rhand -35.6032 -27.3787
rfingers 7.12502
rthumb -8.72689 -57.1783
lclavicle 1.30403e-013 -5.08889e-014
lhumerus 4.561 7.65505 29.4008
lradius 36.2126
lwrist 26.6766
lhand -55.4165 264.089
lfingers 7.12502
lthumb -27.7784 -123.878
rfemur 217.875 224.422 -136.938
rtibia -87.9253
rfoot 154.39 -131.362
rtoes -1.93139
lfemur -108.181 6.65889 -17.0408
ltibia 97.3839
lfoot -21.7601 -6.7523
ltoes 1.21626
401
root 9.86782 12.561 -13.5864 52.7267 4.59511 316.674
lowerback 32.6357 -3.6887 -8.21706
upperback 13.186 -7.59865 -10.0954
thorax -2.62801 -3.69186 -3.88485
lowerneck -18.5981 1.20934 -5.82789
upperneck 27.154 -5.77583 30.7586
head 13.8618 -0.257856 13.1697
rclavicle 6.67916e-014 1.145e-013
rhumerus -66.319 -30.7915 10.3196
rradius 23.929
rwrist 34.6323
rhand -36.0574 -27.4179
rfingers 7.12502
rthumb -9.16519 -57.1988
lclavicle 6.67916e-014 1.145e-013
lhumerus 4.68016 7.32167 30.5263
lradius 36.2371
lwrist 26.9817
lhand -55.1755 264.729
lfingers 7.12502
lthumb -27.548 -123.276
rfemur 219.497 223.766 -136.01
rtibia -88.31
rfoot 152.08 -131.005
rtoes 1.33856
lfemur -108.575 4.74752 -18.7677
ltibia 97.7259
lfoot -22.3599 -4.52354
ltoes 1.79384
402
root 9.87792 12.431 -13.6798 53.0558 3.11198 317.977
lowerback 32.3599 -3.61708 -8.42906
upperback 13.1543 -7.54507 -10.0096
thorax -2.51092 -3.67951 -3.71962
lowerneck -18.3407 0.937214 -6.4781
upperneck 26.8474 -5.9255 30.8517
head 13.7219 -0.40357 13.2748
rclavicle 1.24042e-013 2.8625e-014
rhumerus -67.0062 -31.6512 8.63928
rradius 24.1174
rwrist 32.8612
rhand -36.6784 -27.9413
rfingers 7.12502
rthumb -9.76439 -57.695
lclavicle 1.24042e-013 2.8625e-014
lhumerus 4.49124 6.62544 31.5948
lradius 36.6791
lwrist 27.8169
lhand -55.1688 265.137
lfingers 7.12502
lthumb -27.5416 -122.869
rfemur 220.639 223.195 -134.683
rtibia -88.7209
rfoot 149.17 -130.062
rtoes 5.96089
lfemur -109.244 2.83249 -20.2086
ltibia 98.0087
lfoot -22.9171 -2.11471
ltoes 1.87222
403
root 9.9273 12.3347 -13.7602 53.1982 1.58964 319.708
lowerback 32.5774 -3.75077 -8.56399
upperback 13.2201 -7.76902 -10.0489
thorax -2.51217 -3.78417 -3.61774
lowerneck -18.2967 0.593374 -7.04216
upperneck 26.5123 -6.1828 30.8163
head 13.6467 -0.581906 13.2887
rclavicle -6.36111e-015 1.27222e-014
rhumerus -67.3446 -32.8387 6.85985
rradius 24.3063
rwrist 31.5437
rhand -36.95 -28.3944
rfingers 7.12502
rthumb -10.0264 -58.1356
lclavicle -6.36111e-015 1.27222e-014
lhumerus 5.54861 7.86526 33.98
lradius 35.7828
lwrist 26.2342
lhand -54.9661 265.87
lfingers 7.12502
lthumb -27.3478 -122.166
rfemur 221.237 223.306 -133.823
rtibia -89.0018
rfoot 147.366 -128.5
rtoes 9.48517
lfemur -109.233 0.716613 -22.1322
ltibia 97.7606
lfoot -23.3321 -0.171657
ltoes 1.04088
404
root 9.97427 12.2374 -13.8477 53.4749 -0.0867093 321.184
lowerback 32.6553 -3.82651 -8.65141
upperback 13.1687 -7.91133 -10.0325
thorax -2.58449 -3.84982 -3.50585
lowerneck -18.0583 0.225722 -7.79439
upperneck 25.9768 -6.39951 30.9167
head 13.4444 -0.766273 13.3763
rclavicle 0 4.92986e-014
rhumerus -67.1332 -33.6524 4.8332
rradius 24.6198
rwrist 31.3373
rhand -36.8678 -28.9542
rfingers 7.12502
rthumb -9.94706 -58.6992
lclavicle 0 4.92986e-014
lhumerus 6.01851 7.97559 35.7077
lradius 35.4473
lwrist 25.8455
lhand -54.8405 265.601
lfingers 7.12502
lthumb -27.2275 -122.454
rfemur 221.59 223.096 -132.972
rtibia -89.3845
rfoot 146.466 -126.297
rtoes 11.7924
lfemur -109.399 -1.14108 -23.6687
ltibia 97.4682
lfoot -23.6048 1.48689
ltoes 0.633228
405
root 10.0279 12.1502 -13.9386 53.845 -2.05348 322.296
lowerback 32.63 -3.72247 -8.8642
upperback 13.1413 -7.87055 -10.055
thorax -2.57548 -3.83974 -3.43588
lowerneck -17.9857 -0.12382 -8.29939
upperneck 25.2108 -6.63257 31.0566
head 13.1978 -0.921365 13.3978
rclavicle 1.27222e-014 3.18055e-015
rhumerus -66.364 -34.4026 2.46765
rradius 24.6141
rwrist 32.5913
rhand -36.515 -29.6302
rfingers 7.12502
rthumb -9.60668 -59.3911
lclavicle 1.27222e-014 3.18055e-015
lhumerus 6.3116 7.75027 37.0119
lradius 35.3939
lwrist 25.7726
lhand -54.6761 265.796
lfingers 7.12502
lthumb -27.0703 -122.284
rfemur 221.899 222.464 -132.372
rtibia -89.8305
rfoot 144.942 -124.113
rtoes 14.2453
lfemur -109.865 -2.54784 -24.8481
ltibia 97.2184
lfoot -23.5266 2.75351
ltoes -0.0169522
406
root 10.1092 12.0979 -14.0171 54.3077 -4.11906 323.173
lowerback 32.5667 -3.58833 -8.93392
upperback 13.1361 -7.7539 -10.0766
thorax -2.54946 -3.79459 -3.46197
lowerneck -18.0058 -0.413333 -8.60174
upperneck 24.3181 -6.79551 31.1491
head 12.8989 -1.02211 13.3414
rclavicle 1.145e-013 6.36111e-015
rhumerus -64.7789 -34.288 -0.850801
rradius 24.6773
rwrist 33.8405
rhand -35.8136 -28.8936
rfingers 7.12502
rthumb -8.92996 -58.6847
lclavicle 1.145e-013 6.36111e-015
lhumerus 6.35262 6.87725 37.9197
lradius 35.6978
lwrist 26.3651
lhand -54.3093 265.878
lfingers 7.12502
lthumb -26.7193 -122.256
rfemur 222.192 221.366 -132.345
rtibia -90.1826
rfoot 134.638 -122.567
rtoes 23.8524
lfemur -110.267 -3.56211 -25.8364
ltibia 96.7937
lfoot -23.557 3.61057
ltoes -0.0294387
407
root 10.185 12.0326 -14.1056 54.7792 -6.54337 323.644
lowerback 32.5481 -3.26315 -8.89784
upperback 13.1383 -7.43205 -10.4552
thorax -2.60311 -3.64321 -3.97145
lowerneck -17.8281 -0.588725 -8.118
upperneck 23.277 -7.05542 31.3975
head 12.5288 -1.11783 13.1428
rclavicle 1.59028e-014 7.31528e-014
rhumerus -63.4442 -34.0138 -4.47259
rradius 24.894
rwrist 35.3322
rhand -35.554 -27.9663
rfingers 7.12502
rthumb -8.67945 -57.7679
lclavicle 1.59028e-014 7.31528e-014
lhumerus 6.91023 5.82876 38.3653
lradius 35.6573
lwrist 27.1314
lhand -54.0786 266.405
lfingers 7.12502
lthumb -26.4986 -121.762
rfemur 223.502 219.629 -133.391
rtibia -91.1173
rfoot 124.126 -120.433
rtoes 24.6594
lfemur -110.978 -4.16266 -26.5911
ltibia 96.5797
lfoot -23.3222 4.43816
ltoes -1.0755
